<svg width="18" height="20" viewBox="0 0 18 20" fill="none" xmlns="http://www.w3.org/2000/svg">
<path fill-rule="evenodd" clip-rule="evenodd" d="M0.499359 8.31788C0.499359 3.71801 4.34324 0.00012207 8.9928 0.00012207C13.6555 0.00012207 17.4994 3.71801 17.4994 8.31788C17.4994 10.6358 16.6564 12.7878 15.2689 14.6117C13.7382 16.6236 11.8515 18.3766 9.7279 19.7525C9.24187 20.0705 8.80323 20.0945 8.26981 19.7525C6.13409 18.3766 4.24745 16.6236 2.72986 14.6117C1.34134 12.7878 0.499359 10.6358 0.499359 8.31788ZM6.19359 8.57687C6.19359 10.1178 7.45102 11.3298 8.9928 11.3298C10.5356 11.3298 11.8051 10.1178 11.8051 8.57687C11.8051 7.04792 10.5356 5.77695 8.9928 5.77695C7.45102 5.77695 6.19359 7.04792 6.19359 8.57687Z" fill="#E10D45"/>
</svg>
