<svg width="18" height="16" viewBox="0 0 18 16" fill="none" xmlns="http://www.w3.org/2000/svg">
<path fill-rule="evenodd" clip-rule="evenodd" d="M13.1162 0.492554C14.2337 0.492554 15.3087 0.932905 16.0995 1.72304C16.8912 2.51152 17.3337 3.57501 17.3337 4.68835V11.2521C17.3337 13.5702 15.442 15.4479 13.1162 15.4479H4.88366C2.55783 15.4479 0.666992 13.5702 0.666992 11.2521V4.68835C0.666992 2.37028 2.54949 0.492554 4.88366 0.492554H13.1162ZM14.442 5.92633L14.5087 5.85986C14.7078 5.61891 14.7078 5.26995 14.4995 5.02901C14.3837 4.90521 14.2245 4.8296 14.0587 4.81299C13.8837 4.80385 13.717 4.86284 13.5912 4.97916L9.83366 7.97022C9.35033 8.36986 8.65783 8.36986 8.16699 7.97022L4.41699 4.97916C4.15783 4.78806 3.79949 4.81299 3.58366 5.03732C3.35866 5.26165 3.33366 5.61891 3.52449 5.86817L3.63366 5.97618L7.42533 8.9257C7.89199 9.29127 8.45783 9.49068 9.05033 9.49068C9.64116 9.49068 10.217 9.29127 10.6828 8.9257L14.442 5.92633Z" fill="#E10D45"/>
</svg>
