<svg width="182" height="31" viewBox="0 0 182 31" fill="none" xmlns="http://www.w3.org/2000/svg">
<path d="M5.16275 13.7461H23.292V2.07186H28.4549V30.6398H23.292V18.9656H5.16275V30.6398H0V2.07186H5.16275V13.7461ZM55.9762 23.5078C55.9762 24.2249 55.8504 25.002 55.599 25.8386C55.3475 26.6621 54.937 27.4325 54.3679 28.1497C53.8119 28.8535 53.0772 29.4446 52.1637 29.9227C51.2637 30.4007 50.1648 30.6398 48.8675 30.6398H39.5546C38.8398 30.6398 38.0655 30.5136 37.2314 30.2613C36.4106 30.009 35.6429 29.604 34.9281 29.0461C34.2264 28.4749 33.6374 27.7378 33.1609 26.8348C32.6842 25.9184 32.4461 24.8093 32.4461 23.5078C32.4461 22.7906 32.5717 22.0136 32.8231 21.177C33.0748 20.3402 33.4785 19.5699 34.0345 18.866C34.6037 18.1488 35.3384 17.5512 36.2387 17.073C37.1521 16.5949 38.2573 16.3559 39.5546 16.3559H48.8675V21.2965H39.5546C38.8531 21.2965 38.3104 21.5156 37.9263 21.954C37.5425 22.379 37.3507 22.9101 37.3507 23.5477C37.3507 24.2249 37.5689 24.7563 38.0059 25.1414C38.4559 25.5133 38.9855 25.6992 39.5944 25.6992H48.8675C49.5692 25.6992 50.1119 25.4868 50.4957 25.0618C50.8796 24.6368 51.0716 24.1055 51.0716 23.4679V16.2363C51.0716 15.559 50.8597 15.0211 50.4361 14.6226C50.0258 14.2242 49.503 14.025 48.8675 14.025H37.5294V9.10429H48.8675C49.5823 9.10429 50.3502 9.23047 51.1708 9.48282C52.0049 9.73514 52.7726 10.1469 53.4743 10.718C54.1892 11.2758 54.7849 12.0129 55.2614 12.9293C55.7379 13.8324 55.9762 14.9348 55.9762 16.2363V23.5078ZM87.7471 8.28398H67.5527C66.8512 8.28398 66.3216 8.46327 65.9642 8.82186C65.6068 9.16719 65.4281 9.6785 65.4281 10.3559V30.6398H60.2652V10.3559C60.2652 9.466 60.3777 8.66914 60.6028 7.96522C60.828 7.26133 61.1258 6.64375 61.4965 6.11249C61.8804 5.56797 62.3171 5.10977 62.8069 4.7379C63.2967 4.35272 63.8064 4.04062 64.336 3.80156C64.8786 3.56249 65.4215 3.38984 65.9642 3.28358C66.5202 3.16406 67.0365 3.10429 67.5129 3.10429H87.7471V8.28398ZM112.199 0.104286C111.617 1.92383 106.935 12.7168 106.154 14.4832C105.373 16.2496 104.473 17.9363 103.454 19.5434C102.448 21.1371 101.316 22.6179 100.058 23.986C98.8138 25.3406 97.4305 26.5161 95.9082 27.5121C94.399 28.4949 92.7509 29.2719 90.9638 29.8429C89.1901 30.4007 87.2638 30.6797 85.1855 30.6797C84.8281 30.6797 84.4906 30.6133 84.1729 30.4805C83.8551 30.3477 83.5772 30.1684 83.3388 29.9426C83.1007 29.7035 82.9152 29.4312 82.7828 29.1257C82.6504 28.807 82.5842 28.4684 82.5842 28.1098V8.28398H87.7471V25.3007C89.0046 25.3007 90.2092 25.0285 91.361 24.484C92.5259 23.9393 93.6248 23.2222 94.6572 22.3325C95.6897 21.4293 96.6429 20.4066 97.5166 19.2645C98.4036 18.1223 99.1911 16.9535 99.8795 15.7582C100.568 14.5496 101.15 13.3676 101.627 12.2121C102.117 11.0566 106.481 1.0207 106.719 0.104286H112.199ZM131.551 23.5078C131.551 24.2249 131.425 25.002 131.174 25.8386C130.922 26.6621 130.512 27.4325 129.943 28.1497C129.387 28.8535 128.652 29.4446 127.739 29.9227C126.838 30.4007 125.74 30.6398 124.442 30.6398H115.13C114.415 30.6398 113.64 30.5136 112.806 30.2613C111.986 30.009 111.218 29.604 110.503 29.0461C109.801 28.4749 109.212 27.7378 108.736 26.8348C108.259 25.9184 108.021 24.8093 108.021 23.5078C108.021 22.7906 108.147 22.0136 108.398 21.177C108.65 20.3402 109.053 19.5699 109.609 18.866C110.179 18.1488 110.913 17.5512 111.813 17.073C112.727 16.5949 113.832 16.3559 115.13 16.3559H124.442V21.2965H115.13C114.428 21.2965 113.885 21.5156 113.501 21.954C113.117 22.379 112.925 22.9101 112.925 23.5477C112.925 24.2249 113.144 24.7563 113.581 25.1414C114.031 25.5133 114.56 25.6992 115.169 25.6992H124.442C125.144 25.6992 125.687 25.4868 126.071 25.0618C126.455 24.6368 126.647 24.1055 126.647 23.4679V16.2363C126.647 15.559 126.435 15.0211 126.011 14.6226C125.601 14.2242 125.078 14.025 124.442 14.025H113.104V9.10429H124.442C125.157 9.10429 125.925 9.23047 126.746 9.48282C127.58 9.73514 128.348 10.1469 129.049 10.718C129.764 11.2758 130.36 12.0129 130.836 12.9293C131.313 13.8324 131.551 14.9348 131.551 16.2363V23.5078ZM154.744 14.284H143.128C142.426 14.284 141.897 14.4633 141.539 14.8219C141.182 15.1672 141.003 15.6785 141.003 16.3559V30.6398H135.84V16.3559C135.84 15.466 135.953 14.6691 136.178 13.9652C136.403 13.2613 136.701 12.6438 137.071 12.1125C137.455 11.568 137.892 11.1098 138.382 10.7379C138.872 10.3527 139.381 10.0406 139.911 9.80156C140.454 9.56249 140.996 9.38984 141.539 9.28358C142.095 9.16406 142.611 9.10429 143.088 9.10429H154.744V14.284ZM181.63 23.3684C181.63 24.2583 181.517 25.0618 181.292 25.779C181.067 26.4828 180.769 27.107 180.399 27.6515C180.028 28.1828 179.598 28.6411 179.108 29.0262C178.618 29.3979 178.102 29.7035 177.559 29.9426C177.03 30.1817 176.487 30.361 175.931 30.4805C175.388 30.5868 174.872 30.6398 174.382 30.6398H165.069C164.182 30.6398 163.388 30.527 162.686 30.3012C161.985 30.0754 161.363 29.7765 160.82 29.4047C160.291 29.0196 159.834 28.5812 159.45 28.0898C159.079 27.5984 158.775 27.0871 158.536 26.5558C158.298 26.0113 158.119 25.4669 158 24.9222C157.894 24.3643 157.842 23.8464 157.842 23.3684V16.3559C157.842 15.0277 158.08 13.9055 158.556 12.9891C159.046 12.0594 159.648 11.309 160.363 10.7379C161.091 10.1535 161.879 9.73514 162.726 9.48282C163.573 9.23047 164.355 9.10429 165.069 9.10429H174.382V14.284H165.109C164.421 14.284 163.898 14.4633 163.54 14.8219C163.183 15.1672 163.004 15.6785 163.004 16.3559V23.3285C163.004 24.0325 163.176 24.5636 163.521 24.9222C163.878 25.2808 164.394 25.4601 165.069 25.4601H174.382C175.084 25.4601 175.607 25.2808 175.951 24.9222C176.295 24.5636 176.467 24.0457 176.467 23.3684V0H181.63V23.3684Z" fill="#E10D45"/>
</svg>
